# Blender v2.78 (sub 0) OBJ File: 'TestModel.blend'
# www.blender.org
mtllib TestModel.mtl
o Bob_Cube
v 1.000000 2.870322 -1.024652
v 1.000000 2.853071 0.975017
v 1.000000 10.210531 -0.658893
v 0.999999 10.194899 1.320607
v 1.664001 4.361803 0.420968
v 1.664001 5.289652 0.527008
v 1.664001 4.467842 -0.506880
v 1.664001 5.395691 -0.400840
v 2.597889 4.361803 0.420968
v 2.597889 5.289652 0.527008
v 2.597889 4.467842 -0.506880
v 2.597889 5.395691 -0.400840
v 0.877819 8.610256 -0.556083
v 0.877819 8.551880 1.194309
v 0.938909 9.376183 1.258794
v 0.971183 0.027294 1.811731
v 0.971183 0.498894 1.811731
v 0.495121 0.027294 0.416436
v 0.495121 1.501567 0.416436
v 2.366478 0.027294 1.335669
v 2.366478 0.498894 1.335669
v 1.890416 0.027294 -0.059626
v 1.890416 1.501568 -0.059626
v 0.786115 5.915929 -0.771681
v 0.786115 5.740453 0.793325
v -1.000000 2.870322 -1.024652
v -1.000000 2.853071 0.975017
v -1.000000 10.210531 -0.658893
v -0.999999 10.194899 1.320607
v -1.664001 4.361803 0.420968
v -1.664001 5.289652 0.527008
v -1.664001 4.467842 -0.506880
v -1.664001 5.395691 -0.400840
v -2.597889 4.361803 0.420968
v -2.597889 5.289652 0.527008
v -2.597889 4.467842 -0.506880
v -2.597889 5.395691 -0.400840
v -0.877819 8.610256 -0.556083
v -0.877819 8.551880 1.194309
v -0.938909 9.376183 1.258794
v -0.000000 10.194899 1.320607
v -0.000000 8.556658 1.194313
v -0.000000 9.376242 1.878466
v -0.971183 0.027293 1.811731
v -0.971183 0.498894 1.811731
v -0.495121 0.027294 0.416436
v -0.495121 1.501567 0.416436
v -2.366478 0.027293 1.335670
v -2.366478 0.498894 1.335670
v -1.890416 0.027293 -0.059626
v -1.890416 1.501567 -0.059626
v -0.786115 5.915929 -0.771681
v -0.786115 5.740453 0.793325
v 0.000000 2.866408 -1.015149
v 0.000000 2.854212 0.979032
v -0.000000 10.208788 -0.662261
v -0.000000 8.612770 -0.555792
v 0.000000 5.738648 0.790585
v 0.000000 5.917169 -0.771477
vn -0.0009 1.0000 0.0075
vn 0.9972 -0.0751 -0.0014
vn -1.0000 0.0000 0.0000
vn 0.0000 0.1135 -0.9935
vn 1.0000 -0.0000 0.0000
vn 0.0000 -0.1135 0.9935
vn 0.0000 -0.9935 -0.1135
vn 0.0000 0.9935 0.1135
vn -0.0019 -0.1415 0.9899
vn 0.9995 -0.0330 -0.0023
vn 0.2942 -0.4051 0.8656
vn 0.2934 0.2671 0.9179
vn -0.9464 0.0000 0.3229
vn -0.3229 0.0000 -0.9464
vn 0.9464 0.0000 -0.3229
vn 0.3229 0.0000 0.9464
vn 0.0000 -1.0000 0.0000
vn 0.1816 0.8269 0.5322
vn 0.9974 0.0719 0.0039
vn -0.0001 0.0798 -0.9968
vn 0.0007 0.0640 0.9979
vn 0.0016 -0.0654 -0.9979
vn -0.0055 0.0810 -0.9967
vn 0.0013 -1.0000 -0.0074
vn 0.0009 1.0000 0.0075
vn -0.9972 -0.0751 -0.0014
vn 0.0019 -0.1415 0.9899
vn -0.9995 -0.0330 -0.0023
vn -0.2942 -0.4051 0.8656
vn -0.2934 0.2671 0.9179
vn 0.9464 -0.0000 0.3229
vn 0.3229 -0.0000 -0.9464
vn -0.9464 -0.0000 -0.3229
vn -0.3229 0.0000 0.9464
vn -0.1816 0.8269 0.5322
vn -0.9974 0.0719 0.0039
vn 0.0001 0.0798 -0.9968
vn -0.0007 0.0640 0.9979
vn -0.0016 -0.0654 -0.9979
vn 0.0055 0.0810 -0.9967
vn -0.0013 -1.0000 -0.0074
usemtl Material
s off
f 3//1 56//1 41//1 4//1
f 13//2 3//2 4//2 15//2 14//2
f 6//3 8//3 7//3 5//3
f 8//4 12//4 11//4 7//4
f 12//5 10//5 9//5 11//5
f 10//6 6//6 5//6 9//6
f 5//7 7//7 11//7 9//7
f 10//8 12//8 8//8 6//8
f 25//9 14//9 42//9 58//9
f 24//10 13//10 14//10 25//10
f 14//11 15//11 43//11 42//11
f 15//12 4//12 41//12 43//12
f 17//13 19//13 18//13 16//13
f 19//14 23//14 22//14 18//14
f 23//15 21//15 20//15 22//15
f 21//16 17//16 16//16 20//16
f 16//17 18//17 22//17 20//17
f 21//18 23//18 19//18 17//18
f 1//19 24//19 25//19 2//19
f 13//20 24//20 59//20 57//20
f 2//21 25//21 58//21 55//21
f 3//22 13//22 57//22 56//22
f 24//23 1//23 54//23 59//23
f 1//24 2//24 55//24 54//24
f 28//25 29//25 41//25 56//25
f 38//26 39//26 40//26 29//26 28//26
f 31//5 30//5 32//5 33//5
f 33//4 32//4 36//4 37//4
f 37//3 36//3 34//3 35//3
f 35//6 34//6 30//6 31//6
f 30//7 34//7 36//7 32//7
f 35//8 31//8 33//8 37//8
f 53//27 58//27 42//27 39//27
f 52//28 53//28 39//28 38//28
f 39//29 42//29 43//29 40//29
f 40//30 43//30 41//30 29//30
f 45//31 44//31 46//31 47//31
f 47//32 46//32 50//32 51//32
f 51//33 50//33 48//33 49//33
f 49//34 48//34 44//34 45//34
f 44//17 48//17 50//17 46//17
f 49//35 45//35 47//35 51//35
f 26//36 27//36 53//36 52//36
f 38//37 57//37 59//37 52//37
f 27//38 55//38 58//38 53//38
f 28//39 56//39 57//39 38//39
f 52//40 59//40 54//40 26//40
f 26//41 54//41 55//41 27//41
